<?xml version="1.0" encoding="UTF-8" standalone="no"?>
<!-- Created with Inkscape (http://www.inkscape.org/) -->

<svg
   width="48.166569mm"
   height="50.405708mm"
   viewBox="0 0 48.166569 50.405708"
   version="1.1"
   id="svg1"
   inkscape:version="1.3.2 (091e20e, 2023-11-25, custom)"
   sodipodi:docname="bubble.svg"
   xmlns:inkscape="http://www.inkscape.org/namespaces/inkscape"
   xmlns:sodipodi="http://sodipodi.sourceforge.net/DTD/sodipodi-0.dtd"
   xmlns="http://www.w3.org/2000/svg"
   xmlns:svg="http://www.w3.org/2000/svg">
  <sodipodi:namedview
     id="namedview1"
     pagecolor="#ffffff"
     bordercolor="#000000"
     borderopacity="0.25"
     inkscape:showpageshadow="2"
     inkscape:pageopacity="0.0"
     inkscape:pagecheckerboard="0"
     inkscape:deskcolor="#d1d1d1"
     inkscape:document-units="mm"
     inkscape:zoom="2.0485264"
     inkscape:cx="75.908222"
     inkscape:cy="120.81855"
     inkscape:window-width="1920"
     inkscape:window-height="1009"
     inkscape:window-x="-8"
     inkscape:window-y="-8"
     inkscape:window-maximized="1"
     inkscape:current-layer="g17" />
  <defs
     id="defs1" />
  <g
     inkscape:label="Layer 1"
     inkscape:groupmode="layer"
     id="layer1"
     transform="translate(-19.59467,-29.823503)">
    <g
       id="g17">
      <path
         id="framedesign"
         style="fill:none;fill-opacity:1;stroke:#000000;stroke-width:0.264583;stroke-opacity:1"
         d="m 19.726961,29.955794 v 49.134469 h 24.558191 c -0.0032,0.03121 -0.0093,0.06148 -0.0093,0.09353 0,0.504393 0.40873,0.913123 0.913123,0.913123 0.504392,0 0.913123,-0.40873 0.913123,-0.913123 0,-0.209107 -0.07298,-0.399505 -0.191203,-0.553454 l 0.08062,-0.127641 c 0.140188,0.05282 0.290404,0.08527 0.449068,0.08527 0.706149,0 1.278475,-0.572326 1.278475,-1.278475 0,-0.359291 -0.14949,-0.682915 -0.38809,-0.91519 l 0.340031,-0.535367 c 0.294216,0.614288 0.919826,1.039729 1.646411,1.039729 1.008785,0 1.826762,-0.817977 1.826762,-1.826762 0,-1.004247 -0.810802,-1.818934 -1.813326,-1.826245 l 0.648539,-1.020609 c 0.05207,0.0092 0.104962,0.0155 0.15968,0.0155 0.504393,0 0.91364,-0.40873 0.91364,-0.913123 0,-0.196541 -0.06336,-0.377584 -0.168982,-0.526583 l 0.366386,-0.576709 c 0.21515,0.538944 0.739241,0.920874 1.354956,0.920874 0.807027,0 1.461409,-0.654382 1.461409,-1.461409 0,-0.802421 -0.647304,-1.452448 -1.447973,-1.459859 l 1.133264,-1.065568 c 0.402064,0.482762 1.007273,0.790132 1.684652,0.790132 1.210541,0 2.191597,-0.981055 2.191597,-2.191597 0,-0.628466 -0.265613,-1.194034 -0.689364,-1.593701 l 0.598413,-0.56224 c 0.605701,-0.04359 1.090371,-0.504642 1.169955,-1.099674 l 2.212268,-2.078943 c 0.09294,0.02149 0.188886,0.03514 0.288354,0.03514 0.70615,0 1.278475,-0.572326 1.278475,-1.278475 0,-0.280505 -0.09282,-0.537982 -0.245979,-0.748792 V 29.955794 Z m 43.061455,30.046745 c -0.504393,0 -0.91364,0.409247 -0.91364,0.913639 0,0.504393 0.409247,0.913123 0.91364,0.913123 0.504392,0 0.913122,-0.40873 0.913122,-0.913123 0,-0.504392 -0.40873,-0.913639 -0.913122,-0.913639 z m -2.329057,1.552877 c -0.504393,0 -0.913123,0.40873 -0.913123,0.913122 0,0.504393 0.40873,0.91364 0.913123,0.91364 0.504392,0 0.913122,-0.409247 0.913122,-0.91364 0,-0.504392 -0.40873,-0.913122 -0.913122,-0.913122 z m 4.155302,0.136942 c -0.504393,0 -0.913123,0.40873 -0.913123,0.913123 0,0.504392 0.40873,0.913639 0.913123,0.913639 0.504392,0 0.913639,-0.409247 0.913639,-0.913639 0,-0.504393 -0.409247,-0.913123 -0.913639,-0.913123 z m -1.872237,1.78077 c -0.70615,0 -1.278475,0.572326 -1.278475,1.278475 0,0.706149 0.572325,1.278992 1.278475,1.278992 0.706149,0 1.278991,-0.572843 1.278991,-1.278992 0,-0.706149 -0.572842,-1.278475 -1.278991,-1.278475 z m -3.835425,0.45682 c -0.504393,0 -0.91364,0.40873 -0.91364,0.913122 0,0.504393 0.409247,0.91364 0.91364,0.91364 0.504392,0 0.913122,-0.409247 0.913122,-0.91364 0,-0.504392 -0.40873,-0.913122 -0.913122,-0.913122 z m 1.460892,1.461409 c -0.706149,0 -1.278474,0.572326 -1.278474,1.278475 0,0.70615 0.572325,1.278475 1.278474,1.278475 0.70615,0 1.278992,-0.572325 1.278992,-1.278475 0,-0.706149 -0.572842,-1.278475 -1.278992,-1.278475 z m 3.47059,1.232483 c -1.059224,0 -1.917713,0.859006 -1.917713,1.918229 0,1.059224 0.858489,1.917713 1.917713,1.917713 1.059224,0 1.918229,-0.858489 1.918229,-1.917713 0,-1.059223 -0.859005,-1.918229 -1.918229,-1.918229 z m -5.662187,0.959115 c -0.907906,0 -1.643827,0.735921 -1.643827,1.643827 0,0.907906 0.735921,1.643828 1.643827,1.643828 0.907906,0 1.643827,-0.735922 1.643827,-1.643828 0,-0.907907 -0.73592,-1.643827 -1.643827,-1.643827 z m 2.739884,1.278475 c -0.504392,0 -0.913639,0.409247 -0.913639,0.913639 0,0.504393 0.409247,0.913123 0.913639,0.913123 0.504393,0 0.913123,-0.40873 0.913123,-0.913123 0,-0.504392 -0.40873,-0.913639 -0.913123,-0.913639 z m -5.297351,1.096057 c -0.504392,0 -0.913122,0.40873 -0.913122,0.913123 0,0.504392 0.40873,0.913639 0.913122,0.913639 0.504393,0 0.91364,-0.409247 0.91364,-0.913639 0,-0.504393 -0.409247,-0.913123 -0.91364,-0.913123 z m 7.078121,0.639237 c -0.504392,0 -0.913122,0.409247 -0.913122,0.91364 0,0.504392 0.40873,0.913122 0.913122,0.913122 0.504393,0 0.913123,-0.40873 0.913123,-0.913122 0,-0.504393 -0.40873,-0.91364 -0.913123,-0.91364 z m 2.648417,0.411345 c -0.504392,0 -0.913122,0.40873 -0.913122,0.913122 0,0.504393 0.40873,0.913123 0.913122,0.913123 0.504393,0 0.91364,-0.40873 0.91364,-0.913123 0,-0.504392 -0.409247,-0.913122 -0.91364,-0.913122 z M 52.51359,71.235962 c -0.807028,0 -1.460892,0.654381 -1.460892,1.461409 0,0.807029 0.653864,1.46141 1.460892,1.46141 0.807029,0 1.46141,-0.654381 1.46141,-1.46141 0,-0.807028 -0.654381,-1.461409 -1.46141,-1.461409 z m 7.945769,0.182934 c -0.504393,0 -0.913123,0.408731 -0.913123,0.913123 0,0.504393 0.40873,0.913123 0.913123,0.913123 0.504392,0 0.913122,-0.40873 0.913122,-0.913123 0,-0.504392 -0.40873,-0.913123 -0.913122,-0.913123 z m -3.470589,0.365353 c -1.059224,0 -1.917713,0.858488 -1.917713,1.917712 0,1.059224 0.858489,1.917713 1.917713,1.917713 1.059223,0 1.918229,-0.858489 1.918229,-1.917713 0,-1.059224 -0.859006,-1.917712 -1.918229,-1.917712 z m 6.028055,0.821655 c -0.706149,0 -1.278991,0.572843 -1.278991,1.278992 0,0.706149 0.572842,1.278475 1.278991,1.278475 0.70615,0 1.278475,-0.572326 1.278475,-1.278475 0,-0.706149 -0.572325,-1.278992 -1.278475,-1.278992 z m 3.24218,0.822172 c -0.70615,0 -1.278992,0.572326 -1.278992,1.278475 0,0.706149 0.572842,1.278475 1.278992,1.278475 0.706149,0 1.278475,-0.572326 1.278475,-1.278475 0,-0.706149 -0.572326,-1.278475 -1.278475,-1.278475 z m -6.256466,0.365353 c -0.504392,0 -0.913122,0.40873 -0.913122,0.913122 0,0.504393 0.40873,0.913639 0.913122,0.913639 0.504394,0 0.913639,-0.409245 0.913639,-0.913639 0,-0.504392 -0.409246,-0.913122 -0.913639,-0.913122 z m -6.209957,1.096057 c -1.210542,0 -2.192114,0.981055 -2.192114,2.191597 0,1.210542 0.981572,2.192114 2.192114,2.192114 1.210542,0 2.191598,-0.981572 2.191598,-2.192114 0,-1.210542 -0.981056,-2.191597 -2.191598,-2.191597 z m 10.228833,0.639237 c -0.504392,0 -0.913639,0.40873 -0.913639,0.913123 0,0.504392 0.409247,0.913122 0.913639,0.913122 0.504393,0 0.913123,-0.40873 0.913123,-0.913122 0,-0.504393 -0.40873,-0.913123 -0.913123,-0.913123 z m -3.014286,0.273885 c -0.958346,0 -1.734778,0.776949 -1.734778,1.735295 0,0.958346 0.776432,1.735294 1.734778,1.735294 0.958346,0 1.735295,-0.776948 1.735295,-1.735294 0,-0.958346 -0.776949,-1.735295 -1.735295,-1.735295 z m -3.743958,0.45682 c -0.504392,0 -0.913639,0.40873 -0.913639,0.913122 0,0.504393 0.409247,0.913123 0.913639,0.913123 0.504393,0 0.913123,-0.40873 0.913123,-0.913123 0,-0.504392 -0.40873,-0.913122 -0.913123,-0.913122 z m 9.086784,0.410828 c -0.706149,0 -1.278475,0.572325 -1.278475,1.278474 0,0.70615 0.572326,1.278475 1.278475,1.278475 0.70615,0 1.278992,-0.572325 1.278992,-1.278475 0,-0.706149 -0.572842,-1.278474 -1.278992,-1.278474 z M 49.774223,77.17255 c -0.504393,0 -0.91364,0.408731 -0.91364,0.913123 0,0.504393 0.409247,0.913639 0.91364,0.913639 0.504392,0 0.913122,-0.409246 0.913122,-0.913639 0,-0.504392 -0.40873,-0.913123 -0.913122,-0.913123 z" />
    </g>
  </g>
</svg>
