<svg xmlns="http://www.w3.org/2000/svg" xmlns:xlink="http://www.w3.org/1999/xlink" width="500" zoomAndPan="magnify" viewBox="0 0 375 374.999991" height="500" preserveAspectRatio="xMidYMid meet" version="1.0"><path fill="#744e20" d="M 48.277344 95.628906 C 55.621094 81.617188 62.902344 71.152344 73.488281 59.402344 C 77.40625 55.179688 81.257812 51.386719 85.480469 47.65625 C 134.742188 13.878906 200.398438 7.390625 257.367188 36.273438 C 302.097656 58.976562 332.386719 98.933594 344.195312 143.90625 C 352.089844 172.300781 351.964844 198.980469 344.5 230.613281 C 342.296875 238.753906 339.789062 245.972656 336.484375 253.742188 C 336.179688 254.601562 335.8125 255.394531 335.445312 256.191406 C 335.566406 255.945312 335.753906 255.640625 335.875 255.394531 C 336.117188 254.84375 336.363281 254.292969 336.609375 253.804688 C 339.914062 246.035156 342.421875 238.8125 344.6875 230.675781 C 354.535156 189.859375 352.027344 157.371094 336.179688 118.574219 C 318.066406 79.839844 295.304688 55.976562 257.734375 35.601562 C 235.582031 24.769531 217.410156 19.691406 192.875 17.609375 C 188.894531 17.425781 185.101562 17.304688 181.429688 17.304688 C 185.164062 17.304688 188.957031 17.367188 192.875 17.550781 C 217.472656 19.507812 235.707031 24.527344 257.917969 35.292969 C 295.792969 55.546875 318.679688 79.414062 337.035156 118.207031 C 340.644531 126.898438 343.585938 135.28125 345.847656 143.480469 C 333.917969 98.015625 303.382812 57.75 258.164062 34.804688 C 198.316406 4.453125 129.050781 12.777344 78.75 50.410156 C 75.9375 52.125 73.246094 53.957031 70.492188 55.855469 C 55.804688 66.378906 44.792969 76.660156 34.753906 89.386719 C 31.144531 94.832031 27.71875 100.707031 24.292969 107.195312 C 27.535156 101.015625 30.714844 95.382812 34.144531 90.121094 C 32.492188 92.203125 30.898438 94.34375 29.308594 96.609375 C 27.289062 99.914062 25.453125 103.339844 23.679688 106.886719 C 21.355469 111.414062 19.210938 116.066406 17.375 120.714844 C 14.195312 133.75 12.601562 147.089844 12.664062 160.488281 C 1.589844 231.410156 36.46875 304.46875 103.898438 338.738281 C 140.246094 357.15625 180.019531 361.316406 216.917969 353.363281 C 226.28125 351.28125 235.582031 348.28125 245.679688 344.304688 C 253.328125 341.125 260.058594 337.757812 267.21875 333.597656 L 268.441406 332.863281 C 274.621094 329.070312 280.191406 325.273438 285.878906 320.808594 L 286.0625 320.6875 C 300.871094 308.691406 311.335938 297.496094 321.246094 282.808594 C 321.308594 282.6875 321.371094 282.625 321.429688 282.503906 C 311.398438 297.25 300.8125 308.449219 285.878906 320.441406 L 285.695312 320.5625 C 279.945312 324.96875 274.4375 328.761719 268.195312 332.496094 L 266.972656 333.230469 C 259.8125 337.328125 253.082031 340.632812 245.433594 343.816406 C 221.261719 353.238281 201.5 356.789062 175.492188 356.296875 C 148.570312 354.953125 128.621094 349.75 104.328125 337.878906 C 82.605469 326.375 67.738281 314.6875 51.644531 296.027344 C 47.726562 291.253906 44.179688 286.542969 40.996094 281.890625 C 44.242188 286.542969 47.726562 291.191406 51.703125 295.964844 C 67.859375 314.445312 82.726562 326.070312 104.511719 337.453125 C 128.742188 349.140625 148.628906 354.28125 175.492188 355.503906 C 190.605469 355.6875 203.578125 354.523438 216.550781 351.648438 C 180.023438 359.542969 140.617188 355.382812 104.695312 337.148438 C 34.753906 301.65625 0.183594 224.128906 16.152344 150.945312 C 21.171875 136.75 26.738281 125.550781 35.125 112.699219 C 39.285156 106.582031 43.382812 101.195312 48.277344 95.628906 Z M 46.6875 233.488281 C 46.382812 232.632812 46.074219 231.777344 45.769531 230.921875 C 39.773438 211.949219 37.816406 196.652344 38.855469 176.765625 C 40.261719 159.144531 43.566406 145.4375 50.113281 130.140625 C 51.214844 127.570312 52.4375 124.878906 53.785156 122.183594 C 52.5 124.816406 51.277344 127.386719 50.175781 129.894531 C 43.445312 145.253906 40.019531 159.023438 38.488281 176.765625 C 37.386719 196.714844 39.222656 212.074219 45.15625 231.164062 C 51.582031 250.074219 59.046875 263.65625 71.714844 279.140625 C 85.300781 294.867188 97.84375 304.777344 116.199219 314.507812 C 136.699219 324.542969 153.589844 328.949219 176.351562 330.109375 C 198.320312 330.539062 215.023438 327.539062 235.523438 319.523438 C 241.945312 316.894531 247.636719 314.078125 253.695312 310.589844 L 254.734375 309.980469 C 259.996094 306.859375 264.710938 303.675781 269.542969 299.945312 C 269.542969 299.882812 269.664062 299.824219 269.726562 299.761719 C 273.703125 296.640625 277.3125 293.519531 280.984375 290.03125 C 292.429688 281.527344 300.628906 273.570312 309.5 262.433594 C 311.457031 259.925781 313.292969 257.417969 315.128906 254.785156 C 316.90625 252.152344 318.617188 249.523438 320.269531 246.769531 L 320.515625 246.34375 C 322.472656 239.183594 323.757812 232.636719 324.738281 225.292969 C 326.265625 212.441406 326.265625 201.917969 324.738281 189.066406 C 324.617188 166.671875 321.066406 149.722656 312.253906 129.101562 C 296.773438 96.488281 277.5 76.417969 245.679688 59.40625 C 227.015625 50.410156 211.65625 46.1875 191.035156 44.597656 C 178.492188 43.984375 167.84375 44.535156 156.953125 46.496094 C 150.46875 47.71875 143.921875 49.371094 136.882812 51.632812 C 118.15625 58.121094 104.757812 65.707031 89.460938 78.375 C 77.527344 88.839844 69.023438 98.691406 61.375 111.050781 C 59.171875 114.660156 56.96875 118.515625 54.824219 122.675781 C 57.089844 118.332031 59.414062 114.292969 61.800781 110.5 C 69.390625 98.507812 77.894531 88.839844 89.707031 78.621094 C 105.003906 66.078125 118.402344 58.609375 137.128906 52.246094 C 155.972656 46.375 171.210938 44.476562 190.914062 45.515625 C 211.414062 47.289062 226.648438 51.511719 245.066406 60.570312 C 276.519531 77.578125 295.488281 97.527344 310.601562 129.835938 C 319.167969 150.210938 322.535156 166.917969 322.535156 189.007812 C 320.882812 201.183594 318.371094 210.976562 313.964844 222.417969 C 311.394531 228.78125 308.703125 234.347656 305.339844 240.285156 C 304.664062 241.449219 303.992188 242.546875 303.320312 243.648438 C 303.199219 243.832031 303.136719 244.015625 303.011719 244.199219 C 302.277344 245.300781 301.605469 246.402344 300.8125 247.566406 C 300.566406 247.996094 300.257812 248.421875 299.953125 248.851562 C 298.914062 250.871094 297.75 252.886719 296.648438 254.847656 C 294.9375 257.785156 293.101562 260.597656 291.203125 263.351562 C 286.246094 274.734375 279.761719 285.378906 271.867188 295.050781 C 270.707031 296.027344 269.480469 297.007812 268.320312 297.984375 C 268.257812 298.046875 268.136719 298.046875 268.136719 298.109375 C 263.363281 301.839844 258.773438 304.960938 253.632812 308.082031 C 253.328125 308.328125 252.960938 308.511719 252.59375 308.753906 C 246.65625 312.179688 241.089844 314.996094 234.726562 317.628906 C 214.535156 325.644531 198.132812 328.703125 176.410156 328.394531 C 153.894531 327.417969 137.128906 323.132812 116.8125 313.28125 C 98.515625 303.738281 86.035156 294.007812 72.449219 278.464844 C 60.394531 263.839844 52.992188 250.929688 46.6875 233.488281 Z M 340.035156 267.449219 C 338.320312 270.753906 336.546875 274.058594 334.648438 277.238281 C 323.082031 296.941406 308.214844 313.648438 291.082031 327.050781 L 290.898438 327.234375 C 285.023438 331.761719 278.902344 335.984375 272.539062 339.777344 L 271.257812 340.511719 C 263.976562 344.792969 256.449219 348.527344 248.675781 351.707031 C 202.417969 370.617188 148.449219 370.125 100.351562 345.710938 C 57.335938 323.867188 26.984375 286.96875 12.484375 244.6875 C 12.175781 243.832031 11.871094 242.972656 11.566406 242.117188 C 4.097656 218.3125 1.652344 199.160156 2.9375 174.257812 C 4.648438 152.902344 8.625 136.136719 16.277344 117.777344 C 17.929688 113.921875 19.703125 109.945312 21.722656 105.847656 C 19.765625 109.824219 17.988281 113.617188 16.398438 117.410156 C 8.503906 135.890625 4.464844 152.78125 2.632812 174.257812 C 1.164062 199.222656 3.550781 218.4375 10.953125 242.300781 C 18.96875 266.042969 28.390625 282.992188 44.179688 302.328125 C 61.253906 322.03125 76.917969 334.390625 99.925781 346.570312 C 125.5625 359.113281 146.671875 364.679688 175.1875 366.089844 C 202.664062 366.578125 223.527344 362.84375 249.167969 352.808594 C 257.246094 349.503906 264.34375 346.019531 271.929688 341.671875 L 273.214844 340.878906 C 279.824219 336.898438 285.636719 332.921875 291.695312 328.273438 C 291.757812 328.210938 291.878906 328.152344 291.9375 328.089844 C 296.894531 324.171875 301.425781 320.257812 306.011719 315.851562 C 319.902344 304.957031 329.816406 294.800781 340.464844 280.667969 C 342.851562 277.484375 345.050781 274.363281 347.195312 271.058594 C 349.335938 267.757812 351.355469 264.453125 353.3125 261.023438 L 353.621094 260.414062 C 356.25 251.726562 358.085938 243.648438 359.492188 234.652344 C 361.757812 218.742188 362.183594 205.648438 360.71875 189.617188 C 360.59375 161.59375 356.1875 140.421875 345.234375 114.660156 C 325.898438 73.785156 301.789062 48.636719 261.957031 27.339844 C 238.582031 16.019531 219.367188 10.757812 193.542969 8.675781 C 177.878906 7.882812 164.476562 8.554688 150.832031 11.0625 C 187.363281 4.761719 226.160156 9.71875 261.710938 27.769531 C 338.320312 66.625 374.726562 153.207031 353.25 232.941406 C 351.046875 241.199219 348.234375 249.277344 344.746094 257.292969 C 343.277344 260.71875 341.6875 264.085938 340.035156 267.449219 Z M 50.910156 160.429688 C 55.378906 148.558594 60.210938 139.5 67.492188 129.097656 C 70.859375 124.449219 74.222656 120.347656 78.140625 116.1875 C 83.523438 104.992188 88.910156 96.605469 96.863281 87.121094 C 100.289062 83.207031 103.65625 79.71875 107.449219 76.230469 C 118.21875 69.132812 127.582031 64.542969 139.757812 60.320312 C 157.503906 54.691406 171.761719 52.855469 190.363281 53.773438 C 209.699219 55.242188 224.019531 59.21875 241.519531 67.601562 C 271.320312 83.511719 289.371094 102.296875 303.871094 132.769531 C 306.441406 139.074219 308.644531 145.070312 310.359375 151.003906 C 300.628906 115.941406 276.765625 84.917969 241.761719 67.113281 C 175.679688 33.582031 94.96875 59.953125 61.4375 126.039062 C 27.90625 192.125 54.277344 272.835938 120.363281 306.367188 C 148.753906 320.808594 179.839844 324.113281 208.78125 317.992188 C 216.308594 316.339844 223.773438 313.953125 231.914062 310.769531 C 237.910156 308.261719 243.234375 305.570312 248.863281 302.328125 L 249.839844 301.714844 C 254.675781 298.777344 259.019531 295.78125 263.546875 292.230469 L 263.667969 292.109375 C 275.722656 282.378906 284.105469 273.261719 292.121094 261.148438 C 292.183594 261.085938 292.183594 261.023438 292.246094 260.902344 C 284.105469 273.078125 275.601562 282.195312 263.484375 291.863281 L 263.363281 291.984375 C 258.835938 295.472656 254.492188 298.410156 249.597656 301.347656 L 248.617188 301.960938 C 242.988281 305.203125 237.722656 307.773438 231.726562 310.21875 C 212.636719 317.6875 197.09375 320.4375 176.65625 320.070312 C 155.484375 318.96875 139.820312 314.871094 120.789062 305.507812 C 103.65625 296.453125 92.03125 287.273438 79.363281 272.648438 C 67.617188 258.207031 60.640625 245.664062 54.703125 228.042969 C 49.195312 210.296875 47.484375 196.039062 48.523438 177.4375 C 49.011719 171.566406 49.746094 166.242188 50.910156 160.429688 Z M 50.910156 160.429688 " fill-opacity="1" fill-rule="evenodd"/></svg>