<svg xmlns="http://www.w3.org/2000/svg" xmlns:xlink="http://www.w3.org/1999/xlink" width="578" zoomAndPan="magnify" viewBox="0 0 433.5 506.249968" height="675" preserveAspectRatio="xMidYMid meet" version="1.0"><defs><g/></defs><g fill="#c88b41" fill-opacity="1"><g transform="translate(181.502361, 263.535852)"><g><path d="M 141.34375 53.703125 C 134.75 55.484375 128.378906 55.613281 122.234375 54.09375 C 116.085938 52.582031 110.253906 49.867188 104.734375 45.953125 C 100.992188 42.929688 97.695312 39.640625 94.84375 36.078125 C 92 32.515625 89.332031 28.679688 86.84375 24.578125 C 85.59375 22.617188 84.476562 20.570312 83.5 18.4375 C 82.519531 16.300781 81.40625 14.164062 80.15625 12.03125 C 80.15625 10.601562 79.976562 9.710938 79.625 9.359375 C 77.125 5.253906 74.9375 1.066406 73.0625 -3.203125 C 71.195312 -7.484375 69.460938 -11.757812 67.859375 -16.03125 C 67.859375 -16.382812 67.859375 -16.785156 67.859375 -17.234375 C 67.859375 -17.679688 67.953125 -18.082031 68.140625 -18.4375 C 68.140625 -19.144531 68.269531 -19.765625 68.53125 -20.296875 C 68.800781 -20.835938 69.023438 -21.375 69.203125 -21.90625 C 70.085938 -23.15625 71.195312 -24.09375 72.53125 -24.71875 C 73.875 -25.34375 75.171875 -25.472656 76.421875 -25.109375 C 77.304688 -24.929688 78.101562 -24.753906 78.8125 -24.578125 C 79.53125 -24.398438 80.15625 -24.046875 80.6875 -23.515625 C 83.363281 -24.222656 85.898438 -25.109375 88.296875 -26.171875 C 90.703125 -27.242188 92.796875 -28.671875 94.578125 -30.453125 C 94.941406 -30.816406 95.390625 -31.085938 95.921875 -31.265625 C 96.453125 -31.441406 96.988281 -31.707031 97.53125 -32.0625 C 98.238281 -32.414062 98.992188 -32.859375 99.796875 -33.390625 C 100.597656 -33.929688 101.351562 -34.289062 102.0625 -34.46875 C 103.488281 -35.539062 104.914062 -36.695312 106.34375 -37.9375 C 107.769531 -39.1875 109.285156 -40.253906 110.890625 -41.140625 C 111.773438 -41.679688 112.53125 -42.257812 113.15625 -42.875 C 113.78125 -43.5 114.445312 -44.171875 115.15625 -44.890625 C 115.875 -45.773438 116.5 -46.707031 117.03125 -47.6875 C 117.5625 -48.664062 118.453125 -49.25 119.703125 -49.4375 C 120.054688 -49.4375 120.234375 -49.703125 120.234375 -50.234375 C 121.304688 -52.367188 122.6875 -54.328125 124.375 -56.109375 C 126.070312 -57.890625 127.363281 -59.757812 128.25 -61.71875 C 131.28125 -66.351562 133.414062 -71.160156 134.65625 -76.140625 C 135.90625 -81.128906 136.085938 -86.476562 135.203125 -92.1875 C 133.597656 -98.945312 130.210938 -104.820312 125.046875 -109.8125 C 122.191406 -112.664062 119.070312 -114.582031 115.6875 -115.5625 C 112.300781 -116.539062 108.648438 -117.03125 104.734375 -117.03125 C 102.773438 -117.03125 100.726562 -116.941406 98.59375 -116.765625 C 96.457031 -116.585938 94.410156 -116.226562 92.453125 -115.6875 C 89.773438 -115.507812 87.1875 -115.285156 84.6875 -115.015625 C 82.195312 -114.753906 79.796875 -114.085938 77.484375 -113.015625 C 76.410156 -112.835938 75.519531 -112.570312 74.8125 -112.21875 C 74.101562 -111.863281 73.300781 -111.597656 72.40625 -111.421875 C 72.050781 -111.242188 71.738281 -111.019531 71.46875 -110.75 C 71.207031 -110.476562 70.894531 -110.34375 70.53125 -110.34375 C 67.6875 -109.457031 64.835938 -108.125 61.984375 -106.34375 C 59.140625 -104.5625 56.203125 -102.957031 53.171875 -101.53125 C 52.992188 -101.351562 52.769531 -101.265625 52.5 -101.265625 C 52.238281 -101.265625 51.925781 -101.175781 51.5625 -101 C 48.539062 -98.6875 45.554688 -96.328125 42.609375 -93.921875 C 39.671875 -91.515625 36.957031 -88.617188 34.46875 -85.234375 C 33.21875 -83.628906 32.054688 -82.113281 30.984375 -80.6875 C 29.921875 -79.257812 28.765625 -77.65625 27.515625 -75.875 C 26.453125 -74.09375 25.609375 -72.359375 24.984375 -70.671875 C 24.359375 -68.984375 24.132812 -66.890625 24.3125 -64.390625 C 24.664062 -63.140625 24.53125 -61.976562 23.90625 -60.90625 C 23.289062 -59.84375 22.269531 -58.78125 20.84375 -57.71875 C 20.664062 -57.351562 20.085938 -57.304688 19.109375 -57.578125 C 18.128906 -57.847656 17.457031 -58.160156 17.09375 -58.515625 C 16.5625 -60.296875 15.9375 -61.941406 15.21875 -63.453125 C 14.507812 -64.972656 13.976562 -66.710938 13.625 -68.671875 C 13.445312 -69.734375 13.535156 -70.929688 13.890625 -72.265625 C 14.242188 -73.609375 14.601562 -74.8125 14.96875 -75.875 C 15.5 -77.300781 16.164062 -78.546875 16.96875 -79.609375 C 17.769531 -80.679688 18.523438 -81.84375 19.234375 -83.09375 C 21.910156 -86.125 24.71875 -89.0625 27.65625 -91.90625 C 30.59375 -94.757812 33.488281 -97.34375 36.34375 -99.65625 C 39.726562 -102.332031 43.15625 -104.875 46.625 -107.28125 C 50.09375 -109.6875 53.703125 -111.867188 57.453125 -113.828125 C 65.285156 -118.097656 73.566406 -120.769531 82.296875 -121.84375 C 85.859375 -122.375 89.375 -122.679688 92.84375 -122.765625 C 96.320312 -122.859375 99.753906 -122.90625 103.140625 -122.90625 C 105.628906 -122.90625 108.03125 -122.679688 110.34375 -122.234375 C 112.664062 -121.796875 114.984375 -121.039062 117.296875 -119.96875 C 120.503906 -118.1875 123.617188 -116.226562 126.640625 -114.09375 C 129.671875 -111.957031 132.4375 -109.195312 134.9375 -105.8125 C 136.351562 -104.207031 137.503906 -102.46875 138.390625 -100.59375 C 139.285156 -98.726562 140.09375 -96.546875 140.8125 -94.046875 C 142.050781 -90.128906 142.671875 -86.300781 142.671875 -82.5625 C 142.671875 -78.820312 142.226562 -74.8125 141.34375 -70.53125 C 140.8125 -68.570312 140.097656 -66.65625 139.203125 -64.78125 C 138.316406 -62.914062 137.425781 -61.003906 136.53125 -59.046875 C 134.75 -55.484375 132.519531 -52.234375 129.84375 -49.296875 C 127.175781 -46.359375 124.421875 -43.640625 121.578125 -41.140625 C 118.722656 -38.648438 115.867188 -36.425781 113.015625 -34.46875 C 110.171875 -32.507812 107.054688 -30.816406 103.671875 -29.390625 C 100.460938 -27.960938 97.117188 -26.445312 93.640625 -24.84375 C 90.171875 -23.238281 86.566406 -21.816406 82.828125 -20.578125 C 83.535156 -18.972656 84.289062 -17.410156 85.09375 -15.890625 C 85.894531 -14.378906 86.117188 -12.734375 85.765625 -10.953125 C 85.941406 -9.703125 86.742188 -8.28125 88.171875 -6.6875 C 87.816406 -5.96875 87.726562 -5.382812 87.90625 -4.9375 C 88.082031 -4.5 88.347656 -3.832031 88.703125 -2.9375 C 89.421875 -1.875 90.046875 -0.765625 90.578125 0.390625 C 91.109375 1.554688 91.644531 2.671875 92.1875 3.734375 C 92.1875 3.921875 92.09375 4.015625 91.90625 4.015625 C 92.09375 4.546875 92.273438 5.125 92.453125 5.75 C 92.628906 6.375 92.804688 6.863281 92.984375 7.21875 C 97.078125 16.300781 101.972656 24.757812 107.671875 32.59375 C 111.410156 37.050781 115.640625 40.570312 120.359375 43.15625 C 125.085938 45.738281 130.300781 47.472656 136 48.359375 C 139.207031 48.535156 141.96875 48.398438 144.28125 47.953125 C 146.59375 47.515625 148.910156 46.40625 151.234375 44.625 C 152.117188 44.082031 152.875 43.5 153.5 42.875 C 154.125 42.257812 154.878906 41.503906 155.765625 40.609375 C 156.128906 41.328125 156.175781 41.953125 155.90625 42.484375 C 155.632812 43.015625 155.320312 43.457031 154.96875 43.8125 C 153.1875 46.132812 151.226562 48.140625 149.09375 49.828125 C 146.957031 51.523438 144.375 52.816406 141.34375 53.703125 Z M 43.015625 40.609375 C 43.367188 41.328125 42.878906 42.085938 41.546875 42.890625 C 40.210938 43.691406 38.566406 43.734375 36.609375 43.015625 C 34.648438 42.304688 32.78125 40.171875 31 36.609375 C 30.28125 34.472656 29.519531 32.289062 28.71875 30.0625 C 27.914062 27.832031 27.515625 25.5625 27.515625 23.25 C 27.515625 22.707031 27.46875 22.082031 27.375 21.375 C 27.289062 20.664062 27.160156 19.953125 26.984375 19.234375 L 29.65625 8.8125 C 31.613281 6.144531 32.59375 2.757812 32.59375 -1.34375 C 32.414062 -2.050781 32.59375 -3.03125 33.125 -4.28125 C 34.019531 -6.59375 35 -8.953125 36.0625 -11.359375 C 37.132812 -13.765625 37.847656 -16.300781 38.203125 -18.96875 L 38.203125 -18.703125 C 39.097656 -20.304688 39.988281 -22 40.875 -23.78125 C 41.769531 -25.5625 42.21875 -27.253906 42.21875 -28.859375 C 44.53125 -32.242188 46.046875 -35.628906 46.765625 -39.015625 C 46.046875 -40.972656 46 -42.441406 46.625 -43.421875 C 47.25 -44.398438 47.914062 -45.515625 48.625 -46.765625 C 49.519531 -48.179688 50.234375 -49.554688 50.765625 -50.890625 C 51.296875 -52.234375 51.921875 -53.796875 52.640625 -55.578125 C 54.066406 -59.316406 55.535156 -63.054688 57.046875 -66.796875 C 58.554688 -70.535156 59.9375 -74.363281 61.1875 -78.28125 C 61.894531 -79.351562 62.335938 -80.332031 62.515625 -81.21875 C 62.703125 -82.113281 62.972656 -83.363281 63.328125 -84.96875 C 62.785156 -86.394531 62.335938 -87.863281 61.984375 -89.375 C 61.628906 -90.882812 61.804688 -92.710938 62.515625 -94.859375 C 64.835938 -95.742188 67.289062 -96.363281 69.875 -96.71875 C 72.457031 -97.070312 75.082031 -97.160156 77.75 -96.984375 C 79.175781 -96.984375 80.421875 -96.359375 81.484375 -95.109375 C 82.554688 -93.867188 83.09375 -92.535156 83.09375 -91.109375 C 82.914062 -90.222656 82.78125 -89.289062 82.6875 -88.3125 C 82.601562 -87.332031 82.382812 -86.394531 82.03125 -85.5 C 81.3125 -84.25 80.726562 -82.957031 80.28125 -81.625 C 79.84375 -80.289062 79.175781 -79 78.28125 -77.75 C 76.675781 -74.007812 75.070312 -70.445312 73.46875 -67.0625 C 71.875 -63.675781 70.097656 -60.203125 68.140625 -56.640625 C 65.816406 -51.117188 63.273438 -45.460938 60.515625 -39.671875 C 57.753906 -33.890625 54.953125 -28.144531 52.109375 -22.4375 C 51.035156 -20.125 50.007812 -17.8125 49.03125 -15.5 C 48.050781 -13.1875 47.113281 -10.691406 46.21875 -8.015625 C 45.507812 -6.765625 45.019531 -5.515625 44.75 -4.265625 C 44.488281 -3.023438 44.175781 -1.601562 43.8125 0 C 43.101562 2.3125 42.476562 4.9375 41.9375 7.875 C 41.40625 10.820312 40.695312 13.71875 39.8125 16.5625 C 38.738281 20.84375 38.335938 24.984375 38.609375 28.984375 C 38.878906 32.992188 40.347656 36.867188 43.015625 40.609375 Z M 43.015625 40.609375 "/></g></g></g><g fill="#c88b41" fill-opacity="1"><g transform="translate(87.603778, 260.931922)"><g><path d="M 153.59375 39.65625 C 153.25 40.832031 152.234375 42.390625 150.546875 44.328125 C 148.867188 46.265625 147.863281 47.40625 147.53125 47.75 C 146.34375 49.425781 144.863281 50.601562 143.09375 51.28125 C 141.332031 51.957031 139.441406 52.460938 137.421875 52.796875 C 134.554688 53.640625 131.816406 53.847656 129.203125 53.421875 C 126.597656 53.003906 124.03125 52.375 121.5 51.53125 C 120.15625 51.03125 118.847656 50.273438 117.578125 49.265625 C 116.316406 48.253906 115.015625 47.242188 113.671875 46.234375 C 109.628906 42.859375 107.101562 38.054688 106.09375 31.828125 C 105.082031 25.597656 105 19.875 105.84375 14.65625 C 106.34375 11.789062 106.929688 8.925781 107.609375 6.0625 C 108.285156 3.195312 108.957031 0.503906 109.625 -2.015625 C 110.8125 -5.722656 111.953125 -9.050781 113.046875 -12 C 114.140625 -14.945312 115.273438 -18.1875 116.453125 -21.71875 C 116.453125 -22.5625 116.578125 -23.273438 116.828125 -23.859375 C 117.078125 -24.453125 117.289062 -25.085938 117.46875 -25.765625 C 118.300781 -27.617188 119.015625 -29.257812 119.609375 -30.6875 C 120.203125 -32.125 120.832031 -33.679688 121.5 -35.359375 C 121.84375 -36.203125 122.265625 -37.253906 122.765625 -38.515625 C 123.273438 -39.785156 123.613281 -40.84375 123.78125 -41.6875 L 126.046875 -44.71875 C 126.554688 -45.550781 126.726562 -46.640625 126.5625 -47.984375 C 126.394531 -49.335938 126.726562 -50.519531 127.5625 -51.53125 C 129.757812 -55.738281 131.273438 -60.15625 132.109375 -64.78125 C 132.953125 -69.414062 132.703125 -73.925781 131.359375 -78.3125 C 130.179688 -81.84375 128.160156 -84.113281 125.296875 -85.125 C 122.429688 -86.132812 119.144531 -86.472656 115.4375 -86.140625 C 109.375 -85.628906 104.15625 -83.269531 99.78125 -79.0625 L 92.953125 -72.75 C 91.773438 -71.738281 90.765625 -70.851562 89.921875 -70.09375 C 89.085938 -69.34375 88.078125 -68.375 86.890625 -67.1875 C 86.222656 -66.519531 85.425781 -65.722656 84.5 -64.796875 C 83.570312 -63.867188 82.6875 -62.984375 81.84375 -62.140625 C 81 -61.128906 80.113281 -60.078125 79.1875 -58.984375 C 78.257812 -57.890625 77.289062 -56.5 76.28125 -54.8125 C 75.613281 -53.800781 75.191406 -53.082031 75.015625 -52.65625 C 74.847656 -52.238281 74.347656 -51.359375 73.515625 -50.015625 C 72.328125 -48.160156 71.1875 -46.265625 70.09375 -44.328125 C 69 -42.390625 68.03125 -40.410156 67.1875 -38.390625 C 66.175781 -37.046875 65.414062 -35.570312 64.90625 -33.96875 C 64.40625 -32.375 63.738281 -30.648438 62.90625 -28.796875 C 61.550781 -25.597656 60.410156 -22.398438 59.484375 -19.203125 C 58.554688 -16.003906 57.421875 -12.632812 56.078125 -9.09375 C 54.898438 -5.894531 53.929688 -2.988281 53.171875 -0.375 C 52.410156 2.226562 51.441406 5.21875 50.265625 8.59375 C 49.597656 10.78125 48.882812 12.800781 48.125 14.65625 C 47.363281 16.507812 46.5625 18.53125 45.71875 20.71875 C 45.21875 21.726562 44.753906 22.738281 44.328125 23.75 C 43.910156 24.757812 43.445312 25.769531 42.9375 26.78125 C 42.4375 27.625 41.679688 28.210938 40.671875 28.546875 C 39.660156 28.878906 38.648438 28.710938 37.640625 28.046875 C 36.796875 27.367188 35.910156 26.691406 34.984375 26.015625 C 34.054688 25.347656 33.171875 24.59375 32.328125 23.75 C 31.992188 22.738281 31.910156 21.8125 32.078125 20.96875 C 32.242188 20.125 32.535156 19.28125 32.953125 18.4375 C 33.378906 17.59375 33.847656 16.835938 34.359375 16.171875 C 36.710938 10.273438 38.773438 4.96875 40.546875 0.25 C 42.316406 -4.46875 44.125 -9.941406 45.96875 -16.171875 L 50.515625 -31.328125 C 51.523438 -35.023438 52.328125 -38.007812 52.921875 -40.28125 C 53.515625 -42.5625 54.0625 -45.050781 54.5625 -47.75 C 55.40625 -49.769531 55.910156 -51.789062 56.078125 -53.8125 L 59.359375 -70.484375 C 59.523438 -73.171875 59.773438 -75.773438 60.109375 -78.296875 C 60.453125 -80.828125 60.707031 -83.273438 60.875 -85.640625 C 61.039062 -87.484375 61 -89.375 60.75 -91.3125 C 60.5 -93.25 60.375 -95.144531 60.375 -97 C 60.039062 -98.34375 59.617188 -99.4375 59.109375 -100.28125 C 58.097656 -102.300781 56.414062 -102.976562 54.0625 -102.3125 C 50.863281 -101.125 48 -99.601562 45.46875 -97.75 C 42.945312 -95.90625 40.171875 -93.71875 37.140625 -91.1875 L 36.375 -90.1875 C 33.507812 -87.320312 30.816406 -84.289062 28.296875 -81.09375 C 26.609375 -78.894531 25.21875 -76.828125 24.125 -74.890625 C 23.03125 -72.960938 22.0625 -70.816406 21.21875 -68.453125 C 20.375 -66.097656 18.859375 -65.257812 16.671875 -65.9375 C 15.992188 -66.601562 15.148438 -67.484375 14.140625 -68.578125 C 13.128906 -69.671875 12.625 -70.640625 12.625 -71.484375 C 12.625 -72.160156 12.625 -72.832031 12.625 -73.5 C 12.625 -74.175781 12.796875 -74.851562 13.140625 -75.53125 C 13.984375 -76.707031 14.953125 -78.09375 16.046875 -79.6875 C 17.140625 -81.289062 18.109375 -82.597656 18.953125 -83.609375 C 20.296875 -85.796875 22.441406 -88.40625 25.390625 -91.4375 C 28.335938 -94.46875 31.492188 -97.289062 34.859375 -99.90625 C 38.222656 -102.519531 41.171875 -104.414062 43.703125 -105.59375 C 47.410156 -107.445312 51.03125 -108.5 54.5625 -108.75 C 58.101562 -109 61.472656 -108.367188 64.671875 -106.859375 C 67.535156 -105.671875 69.554688 -103.644531 70.734375 -100.78125 C 71.910156 -97.925781 72.582031 -94.8125 72.75 -91.4375 C 73.082031 -87.226562 72.910156 -82.847656 72.234375 -78.296875 C 71.566406 -73.753906 71.148438 -69.296875 70.984375 -64.921875 C 75.023438 -70.304688 79.738281 -75.269531 85.125 -79.8125 C 90.519531 -84.363281 96.160156 -88.03125 102.046875 -90.8125 C 107.941406 -93.59375 113.5 -94.984375 118.71875 -94.984375 C 122.09375 -94.816406 125.84375 -94.226562 129.96875 -93.21875 C 134.09375 -92.207031 137.503906 -89.765625 140.203125 -85.890625 C 141.710938 -83.703125 142.804688 -81.425781 143.484375 -79.0625 C 144.160156 -76.707031 144.5 -73.507812 144.5 -69.46875 C 144.664062 -68.125 144.617188 -66.816406 144.359375 -65.546875 C 144.109375 -64.285156 143.816406 -63.066406 143.484375 -61.890625 C 143.316406 -59.359375 142.726562 -56.828125 141.71875 -54.296875 C 140.707031 -51.773438 139.78125 -49.335938 138.9375 -46.984375 C 138.257812 -44.628906 137.203125 -42.144531 135.765625 -39.53125 C 134.335938 -36.925781 133.289062 -34.695312 132.625 -32.84375 C 131.945312 -30.476562 131.0625 -28.03125 129.96875 -25.5 C 128.875 -22.976562 127.90625 -20.539062 127.0625 -18.1875 C 126.726562 -17.34375 126.390625 -16.457031 126.046875 -15.53125 C 125.710938 -14.601562 125.296875 -13.550781 124.796875 -12.375 C 124.285156 -11.195312 123.734375 -9.515625 123.140625 -7.328125 C 122.554688 -5.140625 122.007812 -3.285156 121.5 -1.765625 C 120.320312 2.441406 119.4375 5.765625 118.84375 8.203125 C 118.257812 10.648438 117.835938 12.84375 117.578125 14.78125 C 117.328125 16.71875 117.117188 19.117188 116.953125 21.984375 C 116.285156 26.691406 116.539062 31.066406 117.71875 35.109375 C 118.894531 39.148438 120.660156 42.179688 123.015625 44.203125 C 127.054688 47.578125 131.054688 48.757812 135.015625 47.75 C 138.972656 46.738281 143.5625 44.546875 148.78125 41.171875 C 149.457031 40.671875 150.085938 40.25 150.671875 39.90625 C 151.265625 39.570312 151.898438 39.238281 152.578125 38.90625 C 152.742188 38.90625 153.082031 39.15625 153.59375 39.65625 Z M 153.59375 39.65625 "/></g></g></g></svg>