<svg xmlns="http://www.w3.org/2000/svg" xmlns:xlink="http://www.w3.org/1999/xlink" width="500" zoomAndPan="magnify" viewBox="0 0 375 374.999991" height="500" preserveAspectRatio="xMidYMid meet" version="1.0"><defs><g/></defs><path fill="#744e20" d="M 48.277344 91.195312 C 55.621094 77.183594 62.902344 66.71875 73.488281 54.972656 C 77.402344 50.75 81.257812 46.957031 85.480469 43.222656 C 134.738281 9.445312 200.394531 2.960938 257.363281 31.84375 C 302.09375 54.542969 332.378906 94.5 344.191406 139.472656 C 352.082031 167.867188 351.960938 194.542969 344.496094 226.179688 C 342.292969 234.316406 339.785156 241.539062 336.480469 249.308594 C 336.175781 250.164062 335.808594 250.960938 335.441406 251.757812 C 335.5625 251.511719 335.746094 251.207031 335.871094 250.960938 C 336.113281 250.410156 336.359375 249.859375 336.605469 249.371094 C 339.910156 241.597656 342.417969 234.378906 344.679688 226.242188 C 354.53125 185.425781 352.023438 152.9375 336.175781 114.140625 C 318.0625 75.40625 295.300781 51.542969 257.730469 31.167969 C 235.578125 20.339844 217.40625 15.257812 192.871094 13.179688 C 188.890625 12.996094 185.097656 12.871094 181.429688 12.871094 C 185.160156 12.871094 188.953125 12.933594 192.871094 13.117188 C 217.46875 15.074219 235.703125 20.09375 257.914062 30.863281 C 295.789062 51.117188 318.675781 74.980469 337.03125 113.773438 C 340.640625 122.464844 343.578125 130.847656 345.84375 139.046875 C 333.910156 93.582031 303.378906 53.320312 258.160156 30.371094 C 198.316406 0.0234375 129.046875 8.34375 78.75 45.976562 C 75.933594 47.691406 73.242188 49.527344 70.488281 51.421875 C 55.804688 61.945312 44.789062 72.226562 34.753906 84.953125 C 31.144531 90.398438 27.71875 96.273438 24.289062 102.761719 C 27.535156 96.582031 30.714844 90.949219 34.140625 85.6875 C 32.488281 87.769531 30.898438 89.910156 29.308594 92.175781 C 27.289062 95.480469 25.453125 98.90625 23.679688 102.453125 C 21.351562 106.980469 19.210938 111.632812 17.375 116.285156 C 14.191406 129.316406 12.601562 142.65625 12.664062 156.054688 C 1.585938 226.976562 36.464844 300.035156 103.898438 334.300781 C 140.246094 352.71875 180.019531 356.878906 216.914062 348.925781 C 226.277344 346.84375 235.578125 343.847656 245.675781 339.871094 C 253.324219 336.6875 260.054688 333.320312 267.214844 329.160156 L 268.4375 328.425781 C 274.617188 324.632812 280.1875 320.839844 285.875 316.371094 L 286.058594 316.25 C 300.867188 304.257812 311.332031 293.058594 321.242188 278.375 C 321.304688 278.253906 321.367188 278.191406 321.425781 278.066406 C 311.390625 292.816406 300.804688 304.011719 285.875 316.003906 L 285.691406 316.128906 C 279.941406 320.535156 274.433594 324.328125 268.191406 328.058594 L 266.96875 328.792969 C 259.808594 332.894531 253.078125 336.199219 245.429688 339.378906 C 221.261719 348.800781 201.496094 352.351562 175.492188 351.863281 C 148.566406 350.515625 128.621094 345.316406 104.328125 333.445312 C 82.605469 321.941406 67.734375 310.253906 51.644531 291.589844 C 47.726562 286.820312 44.175781 282.105469 40.996094 277.457031 C 44.238281 282.105469 47.726562 286.757812 51.703125 291.53125 C 67.859375 310.007812 82.726562 321.632812 104.511719 333.015625 C 128.742188 344.703125 148.628906 349.84375 175.492188 351.066406 C 190.605469 351.25 203.578125 350.089844 216.550781 347.214844 C 180.019531 355.105469 140.613281 350.945312 104.695312 332.710938 C 34.753906 297.222656 0.183594 219.695312 16.152344 146.511719 C 21.171875 132.316406 26.738281 121.117188 35.121094 108.269531 C 39.28125 102.148438 43.382812 96.765625 48.277344 91.195312 Z M 46.6875 229.054688 C 46.378906 228.199219 46.074219 227.34375 45.769531 226.484375 C 39.773438 207.515625 37.8125 192.21875 38.855469 172.332031 C 40.261719 154.710938 43.566406 141.003906 50.113281 125.707031 C 51.214844 123.136719 52.4375 120.445312 53.785156 117.753906 C 52.5 120.382812 51.273438 122.953125 50.175781 125.460938 C 43.441406 140.820312 40.015625 154.589844 38.488281 172.332031 C 37.386719 192.28125 39.222656 207.640625 45.15625 226.730469 C 51.582031 245.640625 59.046875 259.222656 71.714844 274.703125 C 85.296875 290.429688 97.839844 300.34375 116.199219 310.070312 C 136.695312 320.105469 153.585938 324.511719 176.347656 325.675781 C 198.316406 326.101562 215.019531 323.105469 235.519531 315.089844 C 241.941406 312.457031 247.632812 309.644531 253.691406 306.15625 L 254.730469 305.542969 C 259.992188 302.421875 264.707031 299.242188 269.539062 295.507812 C 269.539062 295.449219 269.660156 295.386719 269.722656 295.324219 C 273.699219 292.207031 277.308594 289.085938 280.980469 285.597656 C 292.425781 277.089844 300.625 269.136719 309.496094 258 C 311.453125 255.492188 313.289062 252.984375 315.125 250.351562 C 316.898438 247.71875 318.613281 245.089844 320.265625 242.335938 L 320.511719 241.90625 C 322.46875 234.746094 323.753906 228.203125 324.734375 220.859375 C 326.261719 208.007812 326.261719 197.484375 324.734375 184.632812 C 324.613281 162.238281 321.0625 145.289062 312.25 124.667969 C 296.769531 92.054688 277.496094 71.984375 245.675781 54.972656 C 227.011719 45.976562 211.65625 41.753906 191.035156 40.164062 C 178.488281 39.554688 167.84375 40.101562 156.949219 42.0625 C 150.464844 43.285156 143.917969 44.9375 136.878906 47.203125 C 118.15625 53.6875 104.757812 61.277344 89.457031 73.941406 C 77.527344 84.40625 69.019531 94.257812 61.371094 106.617188 C 59.171875 110.226562 56.964844 114.082031 54.824219 118.242188 C 57.089844 113.898438 59.414062 109.859375 61.800781 106.066406 C 69.386719 94.074219 77.894531 84.40625 89.703125 74.1875 C 105 61.644531 118.402344 54.179688 137.125 47.816406 C 155.972656 41.941406 171.207031 40.042969 190.910156 41.082031 C 211.410156 42.859375 226.644531 47.082031 245.0625 56.136719 C 276.515625 73.148438 295.484375 93.09375 310.597656 125.402344 C 319.164062 145.777344 322.527344 162.484375 322.527344 184.574219 C 320.875 196.75 318.367188 206.542969 313.960938 217.984375 C 311.390625 224.347656 308.699219 229.914062 305.332031 235.851562 C 304.660156 237.011719 303.988281 238.113281 303.316406 239.214844 C 303.191406 239.398438 303.132812 239.582031 303.007812 239.765625 C 302.273438 240.867188 301.601562 241.96875 300.804688 243.132812 C 300.5625 243.558594 300.253906 243.988281 299.949219 244.414062 C 298.910156 246.433594 297.746094 248.453125 296.644531 250.414062 C 294.929688 253.347656 293.097656 256.164062 291.199219 258.917969 C 286.242188 270.300781 279.757812 280.945312 271.863281 290.613281 C 270.703125 291.59375 269.476562 292.570312 268.316406 293.550781 C 268.253906 293.613281 268.132812 293.613281 268.132812 293.671875 C 263.359375 297.40625 258.769531 300.527344 253.628906 303.648438 C 253.324219 303.890625 252.957031 304.074219 252.589844 304.320312 C 246.652344 307.746094 241.085938 310.5625 234.722656 313.191406 C 214.53125 321.207031 198.132812 324.265625 176.410156 323.960938 C 153.890625 322.980469 137.125 318.699219 116.808594 308.847656 C 98.515625 299.300781 86.03125 289.574219 72.449219 274.03125 C 60.394531 259.40625 52.988281 246.496094 46.6875 229.054688 Z M 340.027344 263.015625 C 338.316406 266.320312 336.542969 269.625 334.644531 272.804688 C 323.078125 292.507812 308.210938 309.214844 291.078125 322.613281 L 290.894531 322.796875 C 285.019531 327.324219 278.898438 331.546875 272.535156 335.339844 L 271.253906 336.074219 C 263.972656 340.359375 256.445312 344.089844 248.671875 347.273438 C 202.414062 366.179688 148.445312 365.691406 100.347656 341.277344 C 57.332031 319.429688 26.984375 282.535156 12.480469 240.25 C 12.175781 239.394531 11.871094 238.539062 11.5625 237.683594 C 4.097656 213.878906 1.652344 194.726562 2.9375 169.824219 C 4.648438 148.46875 8.625 131.703125 16.273438 113.34375 C 17.925781 109.488281 19.703125 105.511719 21.71875 101.414062 C 19.761719 105.390625 17.988281 109.183594 16.398438 112.976562 C 8.503906 131.457031 4.464844 148.347656 2.628906 169.824219 C 1.160156 194.789062 3.546875 214.003906 10.953125 237.867188 C 18.96875 261.609375 28.390625 278.558594 44.179688 297.894531 C 61.25 317.59375 76.914062 329.957031 99.921875 342.132812 C 125.5625 354.675781 146.671875 360.246094 175.183594 361.652344 C 202.660156 362.140625 223.523438 358.410156 249.164062 348.375 C 257.242188 345.070312 264.339844 341.582031 271.925781 337.238281 L 273.210938 336.441406 C 279.820312 332.464844 285.632812 328.488281 291.691406 323.835938 C 291.75 323.777344 291.875 323.714844 291.933594 323.652344 C 296.890625 319.738281 301.417969 315.820312 306.007812 311.414062 C 319.898438 300.523438 329.8125 290.367188 340.457031 276.230469 C 342.84375 273.050781 345.046875 269.929688 347.1875 266.625 C 349.332031 263.320312 351.351562 260.015625 353.308594 256.589844 L 353.613281 255.980469 C 356.246094 247.289062 358.082031 239.214844 359.488281 230.21875 C 361.75 214.308594 362.179688 201.214844 360.710938 185.183594 C 360.589844 157.160156 356.183594 135.988281 345.230469 110.226562 C 325.894531 69.351562 301.785156 44.203125 261.953125 22.910156 C 238.578125 11.589844 219.363281 6.324219 193.542969 4.246094 C 177.875 3.449219 164.476562 4.125 150.832031 6.632812 C 187.359375 0.328125 226.15625 5.285156 261.707031 23.335938 C 338.316406 62.191406 374.722656 148.773438 353.246094 228.503906 C 351.042969 236.765625 348.226562 244.84375 344.742188 252.859375 C 343.273438 256.285156 341.679688 259.648438 340.027344 263.015625 Z M 50.910156 155.996094 C 55.375 144.125 60.210938 135.066406 67.492188 124.664062 C 70.855469 120.015625 74.222656 115.914062 78.136719 111.753906 C 83.523438 100.558594 88.90625 92.175781 96.863281 82.6875 C 100.289062 78.773438 103.652344 75.285156 107.449219 71.796875 C 118.21875 64.699219 127.582031 60.109375 139.757812 55.886719 C 157.5 50.257812 171.757812 48.421875 190.359375 49.339844 C 209.695312 50.808594 224.015625 54.785156 241.515625 63.167969 C 271.316406 79.078125 289.363281 97.863281 303.867188 128.335938 C 306.4375 134.640625 308.640625 140.636719 310.351562 146.570312 C 300.625 111.507812 276.761719 80.484375 241.761719 62.679688 C 175.675781 29.148438 94.964844 55.519531 61.433594 121.605469 C 27.902344 187.691406 54.277344 268.398438 120.359375 301.929688 C 148.753906 316.371094 179.835938 319.675781 208.78125 313.554688 C 216.304688 311.902344 223.769531 309.519531 231.910156 306.335938 C 237.90625 303.828125 243.230469 301.136719 248.859375 297.890625 L 249.839844 297.28125 C 254.671875 294.34375 259.015625 291.34375 263.542969 287.796875 L 263.664062 287.671875 C 275.71875 277.945312 284.101562 268.828125 292.117188 256.710938 C 292.179688 256.652344 292.179688 256.589844 292.242188 256.46875 C 284.101562 268.644531 275.597656 277.761719 263.480469 287.429688 L 263.359375 287.550781 C 258.832031 291.039062 254.488281 293.976562 249.59375 296.914062 L 248.613281 297.523438 C 242.984375 300.765625 237.722656 303.335938 231.722656 305.785156 C 212.632812 313.25 197.089844 316.003906 176.652344 315.636719 C 155.480469 314.535156 139.816406 310.433594 120.789062 301.074219 C 103.652344 292.015625 92.027344 282.835938 79.363281 268.214844 C 67.613281 253.773438 60.636719 241.230469 54.703125 223.605469 C 49.195312 205.863281 47.480469 191.605469 48.523438 173.003906 C 49.011719 167.132812 49.746094 161.808594 50.910156 155.996094 Z M 50.910156 155.996094 " fill-opacity="1" fill-rule="evenodd"/><g fill="#c88b41" fill-opacity="1"><g transform="translate(144.003782, 201.255112)"><g><path d="M 141.5625 53.78125 C 134.957031 55.570312 128.578125 55.707031 122.421875 54.1875 C 116.265625 52.664062 110.421875 49.945312 104.890625 46.03125 C 101.148438 43 97.851562 39.695312 95 36.125 C 92.144531 32.550781 89.46875 28.71875 86.96875 24.625 C 85.71875 22.65625 84.601562 20.597656 83.625 18.453125 C 82.644531 16.316406 81.53125 14.179688 80.28125 12.046875 C 80.28125 10.617188 80.101562 9.722656 79.75 9.359375 C 77.25 5.265625 75.0625 1.078125 73.1875 -3.203125 C 71.3125 -7.492188 69.570312 -11.78125 67.96875 -16.0625 C 67.96875 -16.414062 67.96875 -16.8125 67.96875 -17.25 C 67.96875 -17.695312 68.054688 -18.101562 68.234375 -18.46875 C 68.234375 -19.175781 68.367188 -19.796875 68.640625 -20.328125 C 68.910156 -20.867188 69.132812 -21.40625 69.3125 -21.9375 C 70.195312 -23.1875 71.304688 -24.125 72.640625 -24.75 C 73.984375 -25.375 75.28125 -25.507812 76.53125 -25.15625 C 77.425781 -24.976562 78.226562 -24.796875 78.9375 -24.609375 C 79.65625 -24.429688 80.28125 -24.078125 80.8125 -23.546875 C 83.488281 -24.265625 86.03125 -25.15625 88.4375 -26.21875 C 90.84375 -27.289062 92.941406 -28.71875 94.734375 -30.5 C 95.085938 -30.863281 95.53125 -31.132812 96.0625 -31.3125 C 96.601562 -31.488281 97.140625 -31.753906 97.671875 -32.109375 C 98.378906 -32.460938 99.132812 -32.90625 99.9375 -33.4375 C 100.75 -33.976562 101.507812 -34.335938 102.21875 -34.515625 C 103.644531 -35.585938 105.070312 -36.75 106.5 -38 C 107.925781 -39.25 109.441406 -40.316406 111.046875 -41.203125 C 111.941406 -41.742188 112.703125 -42.328125 113.328125 -42.953125 C 113.953125 -43.578125 114.617188 -44.242188 115.328125 -44.953125 C 116.046875 -45.847656 116.671875 -46.785156 117.203125 -47.765625 C 117.742188 -48.742188 118.632812 -49.320312 119.875 -49.5 C 120.238281 -49.5 120.421875 -49.769531 120.421875 -50.3125 C 121.484375 -52.445312 122.863281 -54.40625 124.5625 -56.1875 C 126.257812 -57.976562 127.550781 -59.851562 128.4375 -61.8125 C 131.476562 -66.445312 133.617188 -71.257812 134.859375 -76.25 C 136.109375 -81.25 136.289062 -86.601562 135.40625 -92.3125 C 133.800781 -99.09375 130.410156 -104.984375 125.234375 -109.984375 C 122.378906 -112.835938 119.253906 -114.753906 115.859375 -115.734375 C 112.472656 -116.710938 108.816406 -117.203125 104.890625 -117.203125 C 102.929688 -117.203125 100.878906 -117.113281 98.734375 -116.9375 C 96.597656 -116.757812 94.550781 -116.40625 92.59375 -115.875 C 89.914062 -115.6875 87.328125 -115.457031 84.828125 -115.1875 C 82.328125 -114.925781 79.921875 -114.257812 77.609375 -113.1875 C 76.535156 -113.007812 75.640625 -112.742188 74.921875 -112.390625 C 74.210938 -112.035156 73.410156 -111.769531 72.515625 -111.59375 C 72.160156 -111.40625 71.847656 -111.175781 71.578125 -110.90625 C 71.316406 -110.644531 71.003906 -110.515625 70.640625 -110.515625 C 67.785156 -109.617188 64.929688 -108.28125 62.078125 -106.5 C 59.222656 -104.71875 56.28125 -103.113281 53.25 -101.6875 C 53.070312 -101.507812 52.847656 -101.421875 52.578125 -101.421875 C 52.316406 -101.421875 52.003906 -101.332031 51.640625 -101.15625 C 48.609375 -98.832031 45.617188 -96.46875 42.671875 -94.0625 C 39.734375 -91.65625 37.015625 -88.753906 34.515625 -85.359375 C 33.265625 -83.753906 32.101562 -82.238281 31.03125 -80.8125 C 29.96875 -79.382812 28.8125 -77.78125 27.5625 -76 C 26.488281 -74.21875 25.640625 -72.476562 25.015625 -70.78125 C 24.390625 -69.082031 24.164062 -66.984375 24.34375 -64.484375 C 24.707031 -63.234375 24.578125 -62.070312 23.953125 -61 C 23.328125 -59.9375 22.300781 -58.867188 20.875 -57.796875 C 20.695312 -57.441406 20.113281 -57.394531 19.125 -57.65625 C 18.144531 -57.925781 17.476562 -58.242188 17.125 -58.609375 C 16.59375 -60.390625 15.96875 -62.035156 15.25 -63.546875 C 14.539062 -65.066406 14.003906 -66.804688 13.640625 -68.765625 C 13.460938 -69.835938 13.550781 -71.039062 13.90625 -72.375 C 14.269531 -73.71875 14.628906 -74.925781 14.984375 -76 C 15.515625 -77.425781 16.179688 -78.671875 16.984375 -79.734375 C 17.796875 -80.804688 18.554688 -81.96875 19.265625 -83.21875 C 21.941406 -86.25 24.75 -89.191406 27.6875 -92.046875 C 30.632812 -94.898438 33.535156 -97.488281 36.390625 -99.8125 C 39.785156 -102.488281 43.21875 -105.03125 46.6875 -107.4375 C 50.164062 -109.84375 53.78125 -112.03125 57.53125 -114 C 65.382812 -118.28125 73.679688 -120.953125 82.421875 -122.015625 C 85.984375 -122.554688 89.503906 -122.867188 92.984375 -122.953125 C 96.460938 -123.046875 99.898438 -123.09375 103.296875 -123.09375 C 105.785156 -123.09375 108.191406 -122.867188 110.515625 -122.421875 C 112.835938 -121.972656 115.15625 -121.21875 117.46875 -120.15625 C 120.6875 -118.363281 123.8125 -116.394531 126.84375 -114.25 C 129.875 -112.113281 132.640625 -109.351562 135.140625 -105.96875 C 136.566406 -104.363281 137.722656 -102.625 138.609375 -100.75 C 139.503906 -98.875 140.304688 -96.6875 141.015625 -94.1875 C 142.265625 -90.269531 142.890625 -86.4375 142.890625 -82.6875 C 142.890625 -78.9375 142.445312 -74.921875 141.5625 -70.640625 C 141.019531 -68.679688 140.300781 -66.765625 139.40625 -64.890625 C 138.519531 -63.015625 137.628906 -61.097656 136.734375 -59.140625 C 134.953125 -55.566406 132.722656 -52.304688 130.046875 -49.359375 C 127.367188 -46.421875 124.601562 -43.703125 121.75 -41.203125 C 118.894531 -38.710938 116.039062 -36.484375 113.1875 -34.515625 C 110.332031 -32.554688 107.210938 -30.863281 103.828125 -29.4375 C 100.617188 -28.007812 97.273438 -26.492188 93.796875 -24.890625 C 90.316406 -23.285156 86.703125 -21.859375 82.953125 -20.609375 C 83.671875 -19.003906 84.429688 -17.441406 85.234375 -15.921875 C 86.035156 -14.398438 86.253906 -12.75 85.890625 -10.96875 C 86.078125 -9.71875 86.882812 -8.289062 88.3125 -6.6875 C 87.945312 -5.976562 87.851562 -5.398438 88.03125 -4.953125 C 88.21875 -4.503906 88.488281 -3.832031 88.84375 -2.9375 C 89.550781 -1.875 90.171875 -0.765625 90.703125 0.390625 C 91.242188 1.554688 91.78125 2.675781 92.3125 3.75 C 92.3125 3.925781 92.222656 4.015625 92.046875 4.015625 C 92.222656 4.546875 92.398438 5.125 92.578125 5.75 C 92.765625 6.375 92.945312 6.863281 93.125 7.21875 C 97.226562 16.320312 102.132812 24.796875 107.84375 32.640625 C 111.582031 37.109375 115.816406 40.632812 120.546875 43.21875 C 125.273438 45.800781 130.492188 47.539062 136.203125 48.4375 C 139.410156 48.613281 142.175781 48.476562 144.5 48.03125 C 146.820312 47.582031 149.140625 46.46875 151.453125 44.6875 C 152.347656 44.15625 153.109375 43.578125 153.734375 42.953125 C 154.359375 42.328125 155.113281 41.566406 156 40.671875 C 156.363281 41.390625 156.410156 42.015625 156.140625 42.546875 C 155.867188 43.078125 155.554688 43.523438 155.203125 43.890625 C 153.421875 46.203125 151.457031 48.207031 149.3125 49.90625 C 147.175781 51.601562 144.59375 52.894531 141.5625 53.78125 Z M 43.078125 40.671875 C 43.441406 41.390625 42.953125 42.148438 41.609375 42.953125 C 40.273438 43.753906 38.625 43.796875 36.65625 43.078125 C 34.695312 42.367188 32.828125 40.226562 31.046875 36.65625 C 30.328125 34.519531 29.566406 32.335938 28.765625 30.109375 C 27.960938 27.878906 27.5625 25.601562 27.5625 23.28125 C 27.5625 22.75 27.515625 22.125 27.421875 21.40625 C 27.335938 20.695312 27.207031 19.984375 27.03125 19.265625 L 29.703125 8.828125 C 31.660156 6.148438 32.640625 2.757812 32.640625 -1.34375 C 32.460938 -2.050781 32.644531 -3.03125 33.1875 -4.28125 C 34.070312 -6.601562 35.050781 -8.96875 36.125 -11.375 C 37.195312 -13.78125 37.910156 -16.320312 38.265625 -19 L 38.265625 -18.734375 C 39.160156 -20.335938 40.050781 -22.03125 40.9375 -23.8125 C 41.832031 -25.59375 42.28125 -27.289062 42.28125 -28.90625 C 44.601562 -32.289062 46.117188 -35.675781 46.828125 -39.0625 C 46.117188 -41.03125 46.070312 -42.503906 46.6875 -43.484375 C 47.3125 -44.460938 47.984375 -45.578125 48.703125 -46.828125 C 49.597656 -48.253906 50.3125 -49.632812 50.84375 -50.96875 C 51.375 -52.3125 52 -53.875 52.71875 -55.65625 C 54.144531 -59.40625 55.613281 -63.148438 57.125 -66.890625 C 58.644531 -70.640625 60.03125 -74.476562 61.28125 -78.40625 C 61.988281 -79.476562 62.429688 -80.457031 62.609375 -81.34375 C 62.796875 -82.238281 63.066406 -83.488281 63.421875 -85.09375 C 62.878906 -86.519531 62.429688 -87.988281 62.078125 -89.5 C 61.722656 -91.019531 61.898438 -92.851562 62.609375 -95 C 64.929688 -95.882812 67.382812 -96.503906 69.96875 -96.859375 C 72.5625 -97.222656 75.195312 -97.316406 77.875 -97.140625 C 79.300781 -97.140625 80.546875 -96.515625 81.609375 -95.265625 C 82.679688 -94.015625 83.21875 -92.675781 83.21875 -91.25 C 83.039062 -90.351562 82.90625 -89.414062 82.8125 -88.4375 C 82.726562 -87.457031 82.507812 -86.519531 82.15625 -85.625 C 81.4375 -84.375 80.851562 -83.082031 80.40625 -81.75 C 79.96875 -80.414062 79.300781 -79.125 78.40625 -77.875 C 76.800781 -74.125 75.195312 -70.550781 73.59375 -67.15625 C 71.988281 -63.769531 70.203125 -60.296875 68.234375 -56.734375 C 65.910156 -51.203125 63.367188 -45.535156 60.609375 -39.734375 C 57.847656 -33.941406 55.039062 -28.191406 52.1875 -22.484375 C 51.113281 -20.160156 50.082031 -17.835938 49.09375 -15.515625 C 48.113281 -13.203125 47.179688 -10.707031 46.296875 -8.03125 C 45.578125 -6.78125 45.082031 -5.53125 44.8125 -4.28125 C 44.550781 -3.03125 44.242188 -1.601562 43.890625 0 C 43.171875 2.320312 42.539062 4.953125 42 7.890625 C 41.46875 10.835938 40.757812 13.738281 39.875 16.59375 C 38.800781 20.875 38.394531 25.019531 38.65625 29.03125 C 38.925781 33.050781 40.398438 36.929688 43.078125 40.671875 Z M 43.078125 40.671875 "/></g></g></g><g fill="#c88b41" fill-opacity="1"><g transform="translate(49.966086, 198.647322)"><g><path d="M 153.8125 39.71875 C 153.476562 40.894531 152.46875 42.453125 150.78125 44.390625 C 149.09375 46.335938 148.082031 47.476562 147.75 47.8125 C 146.5625 49.5 145.082031 50.679688 143.3125 51.359375 C 141.539062 52.035156 139.644531 52.539062 137.625 52.875 C 134.757812 53.71875 132.019531 53.925781 129.40625 53.5 C 126.789062 53.082031 124.21875 52.453125 121.6875 51.609375 C 120.332031 51.097656 119.019531 50.335938 117.75 49.328125 C 116.488281 48.316406 115.1875 47.304688 113.84375 46.296875 C 109.789062 42.921875 107.257812 38.113281 106.25 31.875 C 105.238281 25.632812 105.15625 19.898438 106 14.671875 C 106.507812 11.804688 107.097656 8.9375 107.765625 6.0625 C 108.441406 3.195312 109.117188 0.5 109.796875 -2.03125 C 110.972656 -5.738281 112.109375 -9.066406 113.203125 -12.015625 C 114.304688 -14.960938 115.445312 -18.207031 116.625 -21.75 C 116.625 -22.59375 116.75 -23.3125 117 -23.90625 C 117.257812 -24.5 117.472656 -25.128906 117.640625 -25.796875 C 118.484375 -27.660156 119.195312 -29.304688 119.78125 -30.734375 C 120.375 -32.171875 121.007812 -33.734375 121.6875 -35.421875 C 122.019531 -36.265625 122.4375 -37.316406 122.9375 -38.578125 C 123.445312 -39.847656 123.789062 -40.90625 123.96875 -41.75 L 126.234375 -44.78125 C 126.742188 -45.625 126.910156 -46.71875 126.734375 -48.0625 C 126.566406 -49.414062 126.90625 -50.597656 127.75 -51.609375 C 129.945312 -55.828125 131.46875 -60.253906 132.3125 -64.890625 C 133.15625 -69.523438 132.898438 -74.035156 131.546875 -78.421875 C 130.367188 -81.960938 128.34375 -84.238281 125.46875 -85.25 C 122.601562 -86.269531 119.316406 -86.609375 115.609375 -86.265625 C 109.535156 -85.765625 104.304688 -83.40625 99.921875 -79.1875 L 93.09375 -72.859375 C 91.914062 -71.847656 90.90625 -70.960938 90.0625 -70.203125 C 89.21875 -69.441406 88.207031 -68.472656 87.03125 -67.296875 C 86.351562 -66.617188 85.550781 -65.816406 84.625 -64.890625 C 83.695312 -63.960938 82.8125 -63.078125 81.96875 -62.234375 C 81.125 -61.222656 80.238281 -60.164062 79.3125 -59.0625 C 78.382812 -57.96875 77.414062 -56.578125 76.40625 -54.890625 C 75.726562 -53.878906 75.304688 -53.160156 75.140625 -52.734375 C 74.972656 -52.316406 74.46875 -51.4375 73.625 -50.09375 C 72.4375 -48.238281 71.296875 -46.335938 70.203125 -44.390625 C 69.109375 -42.453125 68.140625 -40.472656 67.296875 -38.453125 C 66.285156 -37.109375 65.523438 -35.632812 65.015625 -34.03125 C 64.515625 -32.425781 63.84375 -30.695312 63 -28.84375 C 61.644531 -25.632812 60.503906 -22.425781 59.578125 -19.21875 C 58.648438 -16.019531 57.507812 -12.648438 56.15625 -9.109375 C 54.976562 -5.898438 54.007812 -2.988281 53.25 -0.375 C 52.488281 2.238281 51.519531 5.226562 50.34375 8.59375 C 49.664062 10.789062 48.945312 12.816406 48.1875 14.671875 C 47.4375 16.523438 46.640625 18.550781 45.796875 20.75 C 45.285156 21.757812 44.816406 22.769531 44.390625 23.78125 C 43.972656 24.789062 43.507812 25.800781 43 26.8125 C 42.5 27.65625 41.742188 28.242188 40.734375 28.578125 C 39.722656 28.921875 38.707031 28.753906 37.6875 28.078125 C 36.851562 27.398438 35.96875 26.722656 35.03125 26.046875 C 34.101562 25.378906 33.21875 24.625 32.375 23.78125 C 32.039062 22.769531 31.957031 21.84375 32.125 21 C 32.289062 20.15625 32.582031 19.3125 33 18.46875 C 33.425781 17.625 33.894531 16.863281 34.40625 16.1875 C 36.769531 10.289062 38.835938 4.976562 40.609375 0.25 C 42.378906 -4.46875 44.191406 -9.945312 46.046875 -16.1875 L 50.59375 -31.375 C 51.601562 -35.082031 52.40625 -38.070312 53 -40.34375 C 53.59375 -42.625 54.140625 -45.113281 54.640625 -47.8125 C 55.484375 -49.832031 55.988281 -51.859375 56.15625 -53.890625 L 59.453125 -70.578125 C 59.617188 -73.273438 59.867188 -75.890625 60.203125 -78.421875 C 60.546875 -80.953125 60.800781 -83.398438 60.96875 -85.765625 C 61.132812 -87.617188 61.09375 -89.515625 60.84375 -91.453125 C 60.59375 -93.390625 60.46875 -95.285156 60.46875 -97.140625 C 60.125 -98.492188 59.703125 -99.59375 59.203125 -100.4375 C 58.191406 -102.457031 56.503906 -103.128906 54.140625 -102.453125 C 50.929688 -101.273438 48.0625 -99.757812 45.53125 -97.90625 C 43.007812 -96.050781 40.226562 -93.859375 37.1875 -91.328125 L 36.4375 -90.3125 C 33.5625 -87.445312 30.859375 -84.410156 28.328125 -81.203125 C 26.640625 -79.015625 25.25 -76.945312 24.15625 -75 C 23.0625 -73.0625 22.09375 -70.914062 21.25 -68.5625 C 20.40625 -66.195312 18.890625 -65.351562 16.703125 -66.03125 C 16.023438 -66.707031 15.179688 -67.59375 14.171875 -68.6875 C 13.160156 -69.78125 12.65625 -70.75 12.65625 -71.59375 C 12.65625 -72.269531 12.65625 -72.941406 12.65625 -73.609375 C 12.65625 -74.285156 12.820312 -74.960938 13.15625 -75.640625 C 14 -76.816406 14.96875 -78.207031 16.0625 -79.8125 C 17.15625 -81.414062 18.125 -82.722656 18.96875 -83.734375 C 20.320312 -85.929688 22.472656 -88.546875 25.421875 -91.578125 C 28.378906 -94.617188 31.539062 -97.441406 34.90625 -100.046875 C 38.28125 -102.660156 41.234375 -104.5625 43.765625 -105.75 C 47.472656 -107.601562 51.097656 -108.65625 54.640625 -108.90625 C 58.179688 -109.164062 61.554688 -108.535156 64.765625 -107.015625 C 67.628906 -105.828125 69.648438 -103.800781 70.828125 -100.9375 C 72.015625 -98.070312 72.691406 -94.953125 72.859375 -91.578125 C 73.191406 -87.359375 73.019531 -82.972656 72.34375 -78.421875 C 71.675781 -73.867188 71.257812 -69.398438 71.09375 -65.015625 C 75.132812 -70.410156 79.851562 -75.382812 85.25 -79.9375 C 90.644531 -84.5 96.296875 -88.171875 102.203125 -90.953125 C 108.109375 -93.734375 113.675781 -95.125 118.90625 -95.125 C 122.28125 -94.957031 126.03125 -94.363281 130.15625 -93.34375 C 134.289062 -92.332031 137.707031 -89.890625 140.40625 -86.015625 C 141.925781 -83.816406 143.019531 -81.535156 143.6875 -79.171875 C 144.363281 -76.816406 144.703125 -73.617188 144.703125 -69.578125 C 144.867188 -68.222656 144.828125 -66.910156 144.578125 -65.640625 C 144.328125 -64.378906 144.03125 -63.160156 143.6875 -61.984375 C 143.519531 -59.453125 142.929688 -56.921875 141.921875 -54.390625 C 140.910156 -51.859375 139.984375 -49.414062 139.140625 -47.0625 C 138.460938 -44.695312 137.40625 -42.207031 135.96875 -39.59375 C 134.539062 -36.976562 133.488281 -34.742188 132.8125 -32.890625 C 132.144531 -30.523438 131.257812 -28.078125 130.15625 -25.546875 C 129.0625 -23.015625 128.09375 -20.570312 127.25 -18.21875 C 126.914062 -17.375 126.578125 -16.488281 126.234375 -15.5625 C 125.898438 -14.632812 125.476562 -13.578125 124.96875 -12.390625 C 124.46875 -11.210938 123.921875 -9.523438 123.328125 -7.328125 C 122.734375 -5.140625 122.1875 -3.285156 121.6875 -1.765625 C 120.507812 2.441406 119.625 5.769531 119.03125 8.21875 C 118.4375 10.664062 118.015625 12.859375 117.765625 14.796875 C 117.515625 16.734375 117.300781 19.140625 117.125 22.015625 C 116.457031 26.734375 116.710938 31.113281 117.890625 35.15625 C 119.066406 39.207031 120.835938 42.242188 123.203125 44.265625 C 127.253906 47.640625 131.257812 48.820312 135.21875 47.8125 C 139.1875 46.800781 143.78125 44.609375 149 41.234375 C 149.675781 40.734375 150.3125 40.3125 150.90625 39.96875 C 151.5 39.632812 152.128906 39.296875 152.796875 38.953125 C 152.972656 38.953125 153.3125 39.207031 153.8125 39.71875 Z M 153.8125 39.71875 "/></g></g></g></svg>