<?xml version="1.0" encoding="UTF-8" standalone="no"?>
<!-- Created with Inkscape (http://www.inkscape.org/) -->

<svg
   width="48.166569mm"
   height="50.405708mm"
   viewBox="0 0 48.166569 50.405708"
   version="1.1"
   id="svg-container"
   inkscape:version="1.3.2 (091e20e, 2023-11-25, custom)"
   sodipodi:docname="bubble-2.svg"
   xml:space="preserve"
   xmlns:inkscape="http://www.inkscape.org/namespaces/inkscape"
   xmlns:sodipodi="http://sodipodi.sourceforge.net/DTD/sodipodi-0.dtd"
   xmlns:xlink="http://www.w3.org/1999/xlink"
   xmlns="http://www.w3.org/2000/svg"
   xmlns:svg="http://www.w3.org/2000/svg"><sodipodi:namedview
     id="namedview1"
     pagecolor="#ffffff"
     bordercolor="#000000"
     borderopacity="0.25"
     inkscape:showpageshadow="2"
     inkscape:pageopacity="0.0"
     inkscape:pagecheckerboard="0"
     inkscape:deskcolor="#d1d1d1"
     inkscape:document-units="mm"
     inkscape:zoom="2.0485264"
     inkscape:cx="48.815578"
     inkscape:cy="97.387078"
     inkscape:window-width="1920"
     inkscape:window-height="1009"
     inkscape:window-x="-8"
     inkscape:window-y="-8"
     inkscape:window-maximized="1"
     inkscape:current-layer="g17" /><defs
     id="defs1"><clipPath
       clipPathUnits="userSpaceOnUse"
       id="clipPath2"><path
         id="path2"
         style="fill:none;fill-opacity:1;stroke:#000000;stroke-width:0.264583;stroke-opacity:1"
         d="m 19.726961,29.955794 v 49.13447 h 24.558191 c -0.0032,0.03121 -0.0093,0.06148 -0.0093,0.09353 0,0.504391 0.40873,0.913122 0.913123,0.913122 0.504392,0 0.913122,-0.408731 0.913122,-0.913122 0,-0.209108 -0.07298,-0.399505 -0.191202,-0.553455 l 0.08062,-0.127641 c 0.140189,0.05282 0.290403,0.08527 0.449069,0.08527 0.706149,0 1.278474,-0.572325 1.278474,-1.278474 0,-0.359291 -0.149489,-0.682916 -0.388091,-0.915192 l 0.340032,-0.535365 c 0.294217,0.614288 0.919827,1.039727 1.64641,1.039727 1.008787,0 1.826762,-0.817975 1.826762,-1.826762 0,-1.004245 -0.810802,-1.818934 -1.813324,-1.826244 l 0.648539,-1.020609 c 0.05207,0.0092 0.10496,0.0155 0.159678,0.0155 0.504394,0 0.913641,-0.408728 0.913641,-0.913122 0,-0.19654 -0.06336,-0.377584 -0.168981,-0.526582 l 0.366384,-0.576709 c 0.215151,0.538943 0.739243,0.920874 1.354958,0.920874 0.807026,0 1.461407,-0.654383 1.461407,-1.46141 0,-0.80242 -0.647303,-1.452449 -1.447972,-1.45986 l 1.133264,-1.065567 c 0.402063,0.482762 1.007274,0.790133 1.684652,0.790133 1.21054,0 2.191597,-0.981056 2.191597,-2.191599 0,-0.628465 -0.265613,-1.194033 -0.689364,-1.593699 l 0.598413,-0.56224 c 0.6057,-0.04359 1.090372,-0.504642 1.169956,-1.099674 l 2.212268,-2.078943 c 0.09294,0.02149 0.188884,0.03514 0.288354,0.03514 0.706149,0 1.278474,-0.572326 1.278474,-1.278475 0,-0.280506 -0.09282,-0.537982 -0.24598,-0.748792 v -28.47423 z m 43.061454,30.046745 c -0.504391,0 -0.913638,0.409247 -0.913638,0.913638 0,0.504394 0.409247,0.913125 0.913638,0.913125 0.504394,0 0.913122,-0.408731 0.913122,-0.913125 0,-0.504391 -0.408728,-0.913638 -0.913122,-0.913638 z m -2.329056,1.552877 c -0.504393,0 -0.913124,0.408731 -0.913124,0.913122 0,0.504394 0.408731,0.913641 0.913124,0.913641 0.504392,0 0.913123,-0.409247 0.913123,-0.913641 0,-0.504391 -0.408731,-0.913122 -0.913123,-0.913122 z m 4.155303,0.136943 c -0.504394,0 -0.913125,0.408728 -0.913125,0.913122 0,0.504391 0.408731,0.913638 0.913125,0.913638 0.504391,0 0.913638,-0.409247 0.913638,-0.913638 0,-0.504394 -0.409247,-0.913122 -0.913638,-0.913122 z m -1.872237,1.78077 c -0.706152,0 -1.278477,0.572326 -1.278477,1.278475 0,0.706149 0.572325,1.27899 1.278477,1.27899 0.706147,0 1.278991,-0.572841 1.278991,-1.27899 0,-0.706149 -0.572844,-1.278475 -1.278991,-1.278475 z m -3.835426,0.456819 c -0.504394,0 -0.913641,0.408731 -0.913641,0.913122 0,0.504394 0.409247,0.913641 0.913641,0.913641 0.504391,0 0.913122,-0.409247 0.913122,-0.913641 0,-0.504391 -0.408731,-0.913122 -0.913122,-0.913122 z m 1.460891,1.461408 c -0.706149,0 -1.278474,0.572328 -1.278474,1.278477 0,0.706149 0.572325,1.278475 1.278474,1.278475 0.706152,0 1.278994,-0.572326 1.278994,-1.278475 0,-0.706149 -0.572842,-1.278477 -1.278994,-1.278477 z m 3.47059,1.232485 c -1.059222,0 -1.917713,0.859004 -1.917713,1.918229 0,1.059222 0.858491,1.917713 1.917713,1.917713 1.059225,0 1.918229,-0.858491 1.918229,-1.917713 0,-1.059225 -0.859004,-1.918229 -1.918229,-1.918229 z m -5.662186,0.959114 c -0.907905,0 -1.643827,0.73592 -1.643827,1.643827 0,0.907905 0.735922,1.643827 1.643827,1.643827 0.907907,0 1.643827,-0.735922 1.643827,-1.643827 0,-0.907907 -0.73592,-1.643827 -1.643827,-1.643827 z m 2.739884,1.278475 c -0.504393,0 -0.91364,0.409247 -0.91364,0.913638 0,0.504393 0.409247,0.913124 0.91364,0.913124 0.504394,0 0.913123,-0.408731 0.913123,-0.913124 0,-0.504391 -0.408729,-0.913638 -0.913123,-0.913638 z m -5.297352,1.096057 c -0.504391,0 -0.913122,0.408729 -0.913122,0.913122 0,0.504394 0.408731,0.913641 0.913122,0.913641 0.504394,0 0.913641,-0.409247 0.913641,-0.913641 0,-0.504393 -0.409247,-0.913122 -0.913641,-0.913122 z m 7.078123,0.639236 c -0.504394,0 -0.913122,0.409247 -0.913122,0.913641 0,0.504391 0.408728,0.913122 0.913122,0.913122 0.504391,0 0.913122,-0.408731 0.913122,-0.913122 0,-0.504394 -0.408731,-0.913641 -0.913122,-0.913641 z m 2.648415,0.411345 c -0.504391,0 -0.913122,0.408731 -0.913122,0.913122 0,0.504394 0.408731,0.913125 0.913122,0.913125 0.504394,0 0.913641,-0.408731 0.913641,-0.913125 0,-0.504391 -0.409247,-0.913122 -0.913641,-0.913122 z m -12.831773,0.227894 c -0.807029,0 -1.460894,0.654381 -1.460894,1.46141 0,0.807027 0.653865,1.46141 1.460894,1.46141 0.807027,0 1.461408,-0.654383 1.461408,-1.46141 0,-0.807029 -0.654381,-1.46141 -1.461408,-1.46141 z m 7.945768,0.182933 c -0.504393,0 -0.913124,0.408731 -0.913124,0.913125 0,0.504391 0.408731,0.913122 0.913124,0.913122 0.504392,0 0.913123,-0.408731 0.913123,-0.913122 0,-0.504394 -0.408731,-0.913125 -0.913123,-0.913125 z M 56.98877,71.78425 c -1.059223,0 -1.917714,0.858486 -1.917714,1.917711 0,1.059225 0.858491,1.917713 1.917714,1.917713 1.059222,0 1.918229,-0.858488 1.918229,-1.917713 0,-1.059225 -0.859007,-1.917711 -1.918229,-1.917711 z m 6.028055,0.821653 c -0.70615,0 -1.278991,0.572844 -1.278991,1.278993 0,0.706149 0.572842,1.278475 1.278991,1.278475 0.706149,0 1.278474,-0.572326 1.278474,-1.278475 0,-0.706149 -0.572325,-1.278993 -1.278474,-1.278993 z m 3.24218,0.822174 c -0.706149,0 -1.278993,0.572326 -1.278993,1.278475 0,0.706149 0.572844,1.278474 1.278993,1.278474 0.706149,0 1.278475,-0.572325 1.278475,-1.278474 0,-0.706149 -0.572326,-1.278475 -1.278475,-1.278475 z m -6.256467,0.365353 c -0.504391,0 -0.913122,0.408728 -0.913122,0.913122 0,0.504391 0.408731,0.913638 0.913122,0.913638 0.504396,0 0.91364,-0.409244 0.91364,-0.913638 0,-0.504394 -0.409246,-0.913122 -0.91364,-0.913122 z m -6.209956,1.096055 c -1.210543,0 -2.192113,0.981056 -2.192113,2.191599 0,1.21054 0.98157,2.192113 2.192113,2.192113 1.210543,0 2.191599,-0.981573 2.191599,-2.192113 0,-1.210543 -0.981056,-2.191599 -2.191599,-2.191599 z m 10.228834,0.639238 c -0.504394,0 -0.913641,0.408729 -0.913641,0.913122 0,0.504394 0.409247,0.913122 0.913641,0.913122 0.504391,0 0.913122,-0.408728 0.913122,-0.913122 0,-0.504393 -0.408731,-0.913122 -0.913122,-0.913122 z m -3.014287,0.273884 c -0.958347,0 -1.734778,0.776949 -1.734778,1.735296 0,0.958345 0.776431,1.735294 1.734778,1.735294 0.958347,0 1.735296,-0.776949 1.735296,-1.735294 0,-0.958347 -0.776949,-1.735296 -1.735296,-1.735296 z m -3.743957,0.456821 c -0.504394,0 -0.913641,0.408729 -0.913641,0.913123 0,0.504393 0.409247,0.913122 0.913641,0.913122 0.504391,0 0.913122,-0.408729 0.913122,-0.913122 0,-0.504394 -0.408731,-0.913123 -0.913122,-0.913123 z m 9.086783,0.410827 c -0.706149,0 -1.278474,0.572325 -1.278474,1.278475 0,0.706151 0.572325,1.278474 1.278474,1.278474 0.70615,0 1.278991,-0.572323 1.278991,-1.278474 0,-0.70615 -0.572841,-1.278475 -1.278991,-1.278475 z m -16.575733,0.502296 c -0.504391,0 -0.91364,0.40873 -0.91364,0.913122 0,0.504393 0.409249,0.91364 0.91364,0.91364 0.504394,0 0.913122,-0.409247 0.913122,-0.91364 0,-0.504392 -0.408728,-0.913122 -0.913122,-0.913122 z" /></clipPath></defs><g
     inkscape:label="Layer 1"
     inkscape:groupmode="layer"
     id="layer1"
     transform="translate(-19.59467,-29.823503)"><g
       id="g17"><image
         width="50.908607"
         height="80.671089"
         preserveAspectRatio="xMidYMax"
         xlink:href=""
         id="image-inset"
         x="18.213017"
         y="9.4337215"
         inkscape:label="image1"
         clip-path="url(#clipPath2)" /></g></g></svg>
